<svg width="453" height="354" viewBox="0 0 453 354" fill="none" xmlns="http://www.w3.org/2000/svg">
<path d="M241.532 49.8779C263.789 18.015 301.919 -1.16022 339.603 0.613281L340.492 0.65918H340.493C345.429 0.932506 350.34 1.56224 355.189 2.54395L356.158 2.74512H356.16C396.055 11.1083 427.672 42.2674 439.365 82.6865L439.638 83.6436L441.004 88.5107C454.152 156.961 425.167 230.484 374.411 276.7L373.208 277.787C322.106 323.575 252.174 343.136 185.005 338.948L183.419 338.845C135.494 335.577 87.1678 320.135 51.1494 287.467L50.3008 286.691C14.4758 253.75 -6.85799 201.802 2.84082 153.008L3.07617 151.856C6.89543 133.588 15.5254 115.543 30.332 105.133L31.042 104.644C43.2012 96.4027 57.2986 94.2909 71.873 95.3447C85.5423 96.3332 99.5954 100.103 112.808 104.18L115.438 104.998C129.411 109.38 144.507 113.653 159.206 114.751C173.682 115.832 187.812 113.837 200.124 105.805L200.709 105.418C210.282 99.0008 217.195 89.7994 223.356 79.8799C226.437 74.921 229.339 69.7651 232.287 64.6855C235.054 59.9184 237.865 55.2124 240.918 50.7646L241.532 49.8779Z" stroke="white"/>
<path d="M155.38 6.47925C180.386 6.47931 200.657 26.7503 200.657 51.7556C200.657 76.7609 180.386 97.0319 155.38 97.032C130.375 97.032 110.104 76.7609 110.104 51.7556C110.104 26.7502 130.375 6.47925 155.38 6.47925Z" stroke="white"/>
<path d="M249.219 49.8779C271.475 18.015 309.606 -1.16022 347.289 0.613281L348.179 0.65918H348.18C353.116 0.932506 358.027 1.56224 362.876 2.54395L363.845 2.74512H363.847C403.742 11.1083 435.359 42.2674 447.052 82.6865L447.324 83.6436L448.691 88.5107C461.838 156.961 432.854 230.484 382.098 276.7L380.895 277.787C329.793 323.575 259.861 343.136 192.692 338.948L191.106 338.845C143.181 335.577 94.8545 320.135 58.8361 287.467L57.9874 286.691C22.1625 253.75 0.828656 201.802 10.5275 153.008L10.7628 151.856C14.5821 133.588 23.2121 115.543 38.0187 105.133L38.7286 104.644C50.8879 96.4027 64.9852 94.2909 79.5597 95.3447C93.229 96.3332 107.282 100.103 120.494 104.18L123.125 104.998C137.098 109.38 152.194 113.653 166.893 114.751C181.368 115.832 195.499 113.837 207.811 105.805L208.396 105.418C217.969 99.0008 224.882 89.7994 231.043 79.8799C234.123 74.921 237.026 69.7651 239.974 64.6855C242.741 59.9184 245.552 55.2124 248.605 50.7646L249.219 49.8779Z" stroke="white"/>
<path d="M163.067 6.47925C188.072 6.47931 208.343 26.7503 208.343 51.7556C208.343 76.7609 188.072 97.0319 163.067 97.032C138.062 97.032 117.791 76.7609 117.791 51.7556C117.791 26.7502 138.062 6.47925 163.067 6.47925Z" stroke="white"/>
<path d="M162.964 110.597C188.246 110.597 208.74 90.1027 208.74 64.8212C208.74 39.5396 188.246 19.0449 162.964 19.0449C137.683 19.0449 117.188 39.5396 117.188 64.8212C117.188 90.1027 137.683 110.597 162.964 110.597Z" fill="#F9A474" fill-opacity="0.3"/>
<path d="M449.074 101.453L447.703 96.5739C436.189 55.5268 404.254 23.7922 363.846 15.3217C358.657 14.2191 353.395 13.5185 348.104 13.2255C309.953 11.095 271.233 30.4072 248.706 62.6572C235.488 81.5571 226.982 105.354 208.014 118.068C183.365 134.614 151.113 126.35 123.172 117.587C95.2305 108.824 62.9111 100.646 38.3456 117.295C22.9546 127.724 14.0642 146.195 10.1705 164.82C-0.140304 214.148 21.3336 266.827 57.5468 300.125C93.7599 333.423 142.59 349.11 190.969 352.409C258.733 357.014 329.505 337.478 381.126 291.225C432.747 244.972 462.376 170.644 449.074 101.453Z" fill="#F9A474" fill-opacity="0.3"/>
</svg>
